<?xml version="1.0" encoding="utf-8"?>
<!-- Generator: Adobe Illustrator 27.5.0, SVG Export Plug-In . SVG Version: 6.00 Build 0)  -->
<svg version="1.1" id="Layer_1" xmlns="http://www.w3.org/2000/svg" xmlns:xlink="http://www.w3.org/1999/xlink" x="0px" y="0px"
	 viewBox="0 0 2000 2000" style="enable-background:new 0 0 2000 2000;" xml:space="preserve">
<g>
	<g>
		<rect x="0" y="0" style="fill:#40414f;" width="2000" height="2000"/>
	</g>
	<path style="fill:#7A9AFB;" d="M1812.063,1870.546H187.938c-11.812,0-21.387-9.575-21.387-21.387v-11.086
		c0-11.812,9.575-21.387,21.387-21.387h1624.125c11.812,0,21.387,9.575,21.387,21.387v11.086
		C1833.449,1860.971,1823.874,1870.546,1812.063,1870.546z"/>
	<g>
		<ellipse style="fill:#9EDFF6;" cx="1001.111" cy="891.624" rx="820.711" ry="763.606"/>
		<linearGradient id="SVGID_1_" gradientUnits="userSpaceOnUse" x1="-83.411" y1="70.1217" x2="1498.861" y2="1305.4033">
			<stop  offset="0" style="stop-color:#7CCDEA"/>
			<stop  offset="1" style="stop-color:#CC97FE"/>
		</linearGradient>
		<path style="opacity:0.25;fill:url(#SVGID_1_);" d="M1821.821,891.624c0-147.16-44.741-284.597-122.258-401.178
			c-59.108,141.837-143.954,267.293-265.604,327.297c-373.023,183.993-552.794-260.128-930.313,63.446
			c-126.291,108.245-204.801,219.33-253.365,319.241c127.463,267.893,415.687,454.8,750.83,454.8
			C1454.377,1655.229,1821.821,1313.352,1821.821,891.624z"/>
		
			<linearGradient id="SVGID_00000021810625108468187110000004434230390470565277_" gradientUnits="userSpaceOnUse" x1="-768.4832" y1="-119.5882" x2="1282.76" y2="1481.8197">
			<stop  offset="0" style="stop-color:#7CCDEA"/>
			<stop  offset="1" style="stop-color:#CC97FE"/>
		</linearGradient>
		<path style="opacity:0.28;fill:url(#SVGID_00000021810625108468187110000004434230390470565277_);" d="M521.623,284.797
			c2.57-6.078,5.049-12.046,7.442-17.908C318.176,405.087,180.4,633.385,180.4,891.624c0,421.728,367.445,763.606,820.711,763.606
			c212.996,0,407.042-75.494,552.914-199.293c-48.131-59.893-142.637-132.303-295.343-219.45
			C624.991,874.844,341.853,709.885,521.623,284.797z"/>
	</g>
	<g>
		<g>
			<path style="fill:#13375B;" d="M1443.309,961.447l-90.036-144.429l20.928-19.888c32.184-30.584,82.88-19.039,110.966,25.271
				l54.476,85.944L1443.309,961.447z"/>
			<path style="fill:#13375B;" d="M1470.961,869.631c28.973-9.172,61.73,12.646,73.167,48.732
				c11.437,36.085-2.78,72.771-31.752,81.942c-28.973,9.172-61.73-12.646-73.167-48.732
				C1427.772,915.489,1441.988,878.801,1470.961,869.631z"/>
			<g>
				<g>
					<path style="fill:#355389;" d="M1678.812,1272.587c3.754-1.718,7.516-3.421,11.286-5.109c2.872-1.286,6.28-0.019,7.556,2.85
						c3.22,7.239,6.137,14.581,8.751,22.007c1.063,3.021-0.644,6.313-3.707,7.278c-3.915,1.229-7.823,2.476-11.726,3.738
						c-2.962,0.957-6.106-0.627-7.142-3.555c-2.347-6.632-4.958-13.191-7.832-19.664
						C1674.725,1277.263,1675.949,1273.896,1678.812,1272.587z"/>
					<path style="fill:#355389;" d="M1695.819,1306.889c1.754-0.493,3.508-0.983,5.265-1.47c3.044-0.845,6.236,0.937,7.054,3.981
						c2.507,9.35,4.539,18.8,6.095,28.313c0.515,3.149-1.728,6.08-4.898,6.503c-1.807,0.24-3.612,0.484-5.419,0.732
						c-3.079,0.422-5.887-1.688-6.39-4.747c-1.451-8.829-3.34-17.6-5.662-26.281
						C1691.05,1310.884,1692.787,1307.741,1695.819,1306.889z"/>
				</g>
				<path style="fill:#466EB6;" d="M1498.461,950.499c8.293-2.84,16.408-6.16,24.313-9.95c22.354-10.717,49.229-3.004,63.19,17.415
					c27.314,39.948,54.627,79.895,81.94,119.843c16.439,24.043,8.972,56.817-16.078,71.797
					c-28.453,17.018-58.776,30.522-90.463,40.287c-28.349,8.736-58.11-8.466-64.381-37.379
					c-10.396-47.934-20.794-95.868-31.19-143.801C1460.407,983.879,1474.357,958.753,1498.461,950.499z"/>
				<path style="fill:#355389;" d="M1614.024,1175.739l20.963-10.396c21.071-10.448,46.621-1.889,57.068,19.119l11.076,22.276
					l-88.873,44.071l-15.238-30.645C1590.872,1203.779,1597.589,1183.888,1614.024,1175.739z"/>
				<path style="fill:#355389;" d="M1656.214,1235.874l17.214-8.535c2.825-1.401,6.252-0.253,7.652,2.563l11.867,23.865
					c1.401,2.817,0.246,6.235-2.58,7.639l-17.213,8.536c-2.826,1.399-6.252,0.253-7.653-2.565l-11.867-23.864
					C1652.232,1240.696,1653.388,1237.276,1656.214,1235.874z"/>
				<g>
					<path style="fill:#355389;" d="M1709.214,1256.654c3.755-1.719,7.517-3.423,11.287-5.11c2.871-1.285,6.28-0.019,7.555,2.85
						c3.22,7.239,6.138,14.581,8.752,22.007c1.063,3.021-0.644,6.313-3.707,7.277c-3.915,1.229-7.822,2.479-11.725,3.74
						c-2.963,0.957-6.106-0.627-7.143-3.555c-2.347-6.631-4.959-13.191-7.832-19.665
						C1705.127,1261.329,1706.354,1257.963,1709.214,1256.654z"/>
					<path style="fill:#355389;" d="M1726.224,1290.955c1.754-0.493,3.507-0.983,5.264-1.468c3.044-0.846,6.236,0.937,7.053,3.979
						c2.508,9.35,4.54,18.8,6.095,28.313c0.516,3.15-1.727,6.08-4.897,6.502c-1.807,0.241-3.612,0.485-5.418,0.732
						c-3.08,0.422-5.888-1.687-6.391-4.747c-1.451-8.829-3.34-17.6-5.663-26.28
						C1721.453,1294.95,1723.19,1291.809,1726.224,1290.955z"/>
				</g>
				<path style="fill:#355389;" d="M1686.617,1219.94l17.213-8.535c2.826-1.401,6.252-0.254,7.653,2.564l11.867,23.864
					c1.4,2.817,0.245,6.237-2.58,7.639l-17.214,8.535c-2.825,1.401-6.251,0.252-7.652-2.563l-11.867-23.865
					C1682.636,1224.763,1683.791,1221.344,1686.617,1219.94z"/>
				<g>
					<path style="fill:#355389;" d="M1648.493,1288.864c3.755-1.718,7.516-3.422,11.286-5.111c2.872-1.286,6.28-0.019,7.557,2.85
						c3.219,7.239,6.137,14.581,8.751,22.009c1.063,3.021-0.646,6.312-3.708,7.276c-3.914,1.23-7.822,2.478-11.724,3.74
						c-2.963,0.957-6.108-0.628-7.144-3.556c-2.347-6.631-4.957-13.191-7.832-19.665
						C1644.407,1293.54,1645.632,1290.174,1648.493,1288.864z"/>
					<path style="fill:#355389;" d="M1665.502,1323.164c1.753-0.492,3.508-0.981,5.264-1.468c3.044-0.846,6.237,0.937,7.054,3.981
						c2.507,9.348,4.541,18.799,6.095,28.313c0.515,3.149-1.728,6.079-4.897,6.503c-1.807,0.239-3.613,0.483-5.418,0.73
						c-3.08,0.422-5.888-1.686-6.391-4.745c-1.451-8.829-3.34-17.601-5.664-26.282
						C1660.732,1327.161,1662.469,1324.018,1665.502,1323.164z"/>
				</g>
				<path style="fill:#355389;" d="M1625.896,1252.151l17.214-8.535c2.826-1.401,6.251-0.254,7.653,2.563l11.866,23.865
					c1.401,2.815,0.247,6.235-2.579,7.638l-17.214,8.536c-2.825,1.4-6.252,0.252-7.652-2.564l-11.868-23.864
					C1621.915,1256.972,1623.07,1253.552,1625.896,1252.151z"/>
				<g>
					<path style="fill:#355389;" d="M1606.439,1265.767c-4.123,0.236-8.245,0.491-12.366,0.762c-3.14,0.206-5.562,2.921-5.346,6.053
						c0.54,7.904,1.396,15.76,2.559,23.546c0.474,3.168,3.521,5.277,6.681,4.697c4.034-0.742,8.072-1.47,12.111-2.178
						c3.066-0.54,5.104-3.412,4.65-6.484c-1.026-6.958-1.788-13.979-2.275-21.043
						C1612.237,1267.986,1609.58,1265.586,1606.439,1265.767z"/>
					<path style="fill:#355389;" d="M1607.448,1304.04c-1.78,0.384-3.56,0.771-5.339,1.163c-3.086,0.676-5.074,3.745-4.373,6.818
						c2.157,9.437,4.78,18.74,7.856,27.876c1.018,3.023,4.371,4.566,7.37,3.455c1.709-0.631,3.419-1.262,5.131-1.887
						c2.92-1.066,4.416-4.245,3.429-7.184c-2.847-8.481-5.28-17.118-7.287-25.879
						C1613.533,1305.341,1610.527,1303.374,1607.448,1304.04z"/>
				</g>
				<path style="fill:#355389;" d="M1595.993,1224.012c-0.178-0.358-0.349-0.717-0.516-1.077l-5.663,0.149
					c-3.035,0.08-5.432,2.599-5.356,5.626l0.688,27.247c0.077,3.028,2.599,5.417,5.632,5.337l17.226-0.454
					c2.107-0.057,3.908-1.287,4.785-3.051L1595.993,1224.012z"/>
			</g>
			<path style="fill:#13375B;" d="M978.261,946.664l116.587-123.99l-16.625-23.603c-25.567-36.296-77.543-34.908-113.766,3.041
				l-70.258,73.605L978.261,946.664z"/>
			<path style="fill:#13375B;" d="M969.134,851.209c-26.614-14.67-63.012,0.306-81.297,33.452
				c-18.285,33.145-11.532,71.905,15.081,86.575c26.614,14.67,63.012-0.306,81.297-33.452
				C1002.5,904.64,995.748,865.878,969.134,851.209z"/>
			<g>
				<g>
					<path style="fill:#355389;" d="M686.362,1205.632c-3.344-2.42-6.7-4.827-10.066-7.222c-2.565-1.824-6.155-1.249-7.968,1.313
						c-4.575,6.469-8.874,13.097-12.893,19.866c-1.635,2.754-0.605,6.317,2.209,7.863c3.599,1.972,7.187,3.96,10.766,5.963
						c2.718,1.52,6.111,0.582,7.7-2.086c3.601-6.044,7.446-11.964,11.533-17.749
						C689.453,1211.018,688.912,1207.477,686.362,1205.632z"/>
					<path style="fill:#355389;" d="M662.963,1235.936c-1.624-0.826-3.248-1.651-4.875-2.473c-2.819-1.424-6.299-0.303-7.697,2.522
						c-4.289,8.678-8.135,17.546-11.524,26.57c-1.121,2.987,0.502,6.301,3.529,7.336c1.725,0.59,3.447,1.184,5.17,1.78
						c2.938,1.017,6.104-0.503,7.197-3.403c3.152-8.374,6.724-16.604,10.702-24.662
						C666.857,1240.788,665.768,1237.366,662.963,1235.936z"/>
				</g>
				<path style="fill:#466EB6;" d="M926.322,925.122c-7.575-4.409-14.884-9.255-21.893-14.521
					c-19.821-14.89-47.687-12.591-65.378,4.697c-34.612,33.821-69.222,67.643-103.833,101.465
					c-20.831,20.357-19.93,53.958,1.699,73.556c24.568,22.263,51.656,41.447,80.817,57.23c26.087,14.121,58.642,3.084,70.456-24.04
					c19.587-44.968,39.174-89.937,58.761-134.903C957.099,965.311,948.342,937.938,926.322,925.122z"/>
				<path style="fill:#355389;" d="M768.868,1123.354l-18.52-14.302c-18.615-14.374-45.347-10.986-59.707,7.567l-15.227,19.675
					l78.516,60.63l20.946-27.064C786.078,1155.387,783.388,1134.565,768.868,1123.354z"/>
				<path style="fill:#355389;" d="M715.715,1174.058l-15.208-11.743c-2.496-1.927-6.081-1.472-8.007,1.016l-16.312,21.077
					c-1.927,2.488-1.464,6.066,1.033,7.996l15.206,11.743c2.498,1.926,6.082,1.473,8.008-1.017l16.313-21.076
					C718.673,1179.566,718.21,1175.986,715.715,1174.058z"/>
				<g>
					<path style="fill:#355389;" d="M659.67,1184.051c-3.345-2.421-6.7-4.829-10.066-7.223c-2.564-1.823-6.155-1.248-7.967,1.314
						c-4.575,6.468-8.875,13.096-12.894,19.865c-1.634,2.755-0.605,6.317,2.21,7.862c3.598,1.973,7.185,3.963,10.765,5.965
						c2.718,1.52,6.111,0.582,7.7-2.086c3.6-6.042,7.447-11.964,11.533-17.749C662.762,1189.437,662.219,1185.895,659.67,1184.051z"
						/>
					<path style="fill:#355389;" d="M636.27,1214.354c-1.624-0.827-3.246-1.651-4.874-2.471c-2.819-1.426-6.299-0.303-7.696,2.521
						c-4.291,8.677-8.136,17.546-11.524,26.57c-1.123,2.988,0.502,6.301,3.529,7.336c1.724,0.59,3.446,1.183,5.169,1.779
						c2.938,1.018,6.103-0.501,7.197-3.402c3.153-8.374,6.724-16.604,10.702-24.662
						C640.165,1219.207,639.077,1215.785,636.27,1214.354z"/>
				</g>
				<path style="fill:#355389;" d="M689.022,1152.477l-15.207-11.742c-2.497-1.928-6.081-1.475-8.007,1.015l-16.313,21.076
					c-1.925,2.489-1.462,6.069,1.033,7.996l15.208,11.743c2.497,1.927,6.082,1.472,8.007-1.016l16.313-21.076
					C691.981,1157.985,691.518,1154.405,689.022,1152.477z"/>
				<g>
					<path style="fill:#355389;" d="M712.903,1227.533c-3.345-2.42-6.7-4.828-10.066-7.224c-2.564-1.823-6.155-1.248-7.968,1.314
						c-4.575,6.468-8.875,13.096-12.894,19.867c-1.635,2.755-0.604,6.316,2.211,7.862c3.597,1.973,7.185,3.961,10.764,5.965
						c2.718,1.519,6.112,0.58,7.701-2.088c3.601-6.042,7.446-11.965,11.533-17.749
						C715.994,1232.919,715.453,1229.378,712.903,1227.533z"/>
					<path style="fill:#355389;" d="M689.504,1257.836c-1.623-0.826-3.248-1.651-4.874-2.471c-2.819-1.426-6.3-0.304-7.697,2.522
						c-4.29,8.675-8.137,17.545-11.524,26.569c-1.122,2.987,0.503,6.3,3.528,7.336c1.726,0.589,3.449,1.183,5.17,1.778
						c2.938,1.018,6.104-0.499,7.196-3.4c3.153-8.374,6.724-16.605,10.703-24.664
						C693.398,1262.689,692.311,1259.267,689.504,1257.836z"/>
				</g>
				<path style="fill:#355389;" d="M742.256,1195.96l-15.208-11.743c-2.496-1.928-6.081-1.474-8.007,1.015l-16.313,21.077
					c-1.925,2.487-1.463,6.067,1.033,7.996l15.207,11.742c2.497,1.928,6.082,1.473,8.007-1.015l16.313-21.076
					C745.215,1201.467,744.752,1197.887,742.256,1195.96z"/>
				<g>
					<path style="fill:#355389;" d="M758.667,1213.123c3.997,1.039,7.989,2.097,11.978,3.169c3.039,0.818,4.88,3.954,4.056,6.983
						c-2.079,7.645-4.457,15.181-7.123,22.588c-1.085,3.014-4.487,4.486-7.471,3.298c-3.812-1.519-7.628-3.022-11.45-4.509
						c-2.901-1.13-4.336-4.346-3.291-7.27c2.371-6.622,4.492-13.357,6.355-20.189
						C752.547,1214.164,755.623,1212.33,758.667,1213.123z"/>
					<path style="fill:#355389;" d="M750.179,1250.457c1.671,0.725,3.339,1.454,5.007,2.187c2.894,1.268,4.243,4.667,2.953,7.543
						c-3.964,8.831-8.359,17.44-13.166,25.796c-1.59,2.767-5.181,3.622-7.904,1.944c-1.553-0.953-3.106-1.907-4.662-2.855
						c-2.655-1.617-3.499-5.028-1.955-7.716c4.453-7.759,8.532-15.752,12.216-23.95
						C743.957,1250.54,747.29,1249.201,750.179,1250.457z"/>
				</g>
				<path style="fill:#355389;" d="M777.092,1174.224c0.244-0.315,0.482-0.634,0.716-0.955l5.524,1.257
					c2.96,0.673,4.818,3.612,4.15,6.566l-6.014,26.584c-0.668,2.954-3.609,4.803-6.568,4.13l-16.802-3.82
					c-2.056-0.468-3.58-2.028-4.095-3.93L777.092,1174.224z"/>
			</g>
			<path style="fill:#B75742;" d="M1040.682,461.536c-0.032-270.218,370.518-270.264,370.55,0c3.152,0,6.304,0,9.456,0
				c0.031-284.148-389.62-284.194-389.651,0C1034.251,461.536,1037.467,461.536,1040.682,461.536z"/>
			<path style="fill:#B75742;" d="M1243.57,249.196c-0.67,3.468-0.896,6.934-0.894,10.4
				c-97.869-8.636-202.013,58.68-201.995,201.939c-3.215,0-6.431,0-9.646,0C1031.053,310.828,1140.637,240.059,1243.57,249.196z"/>
			<path style="fill:#B75742;" d="M1243.281,248.773c0,3.485,0,6.972,0,10.457c-98.984-5.987-188.096,62.139-188.078,202.995
				c-3.302,0-29.281-1.018-32.582-1.018C1022.638,313.339,1139.371,242.761,1243.281,248.773z"/>
			<path style="fill:#F47458;" d="M1035.186,436.683c23.987,0.598,42.083,38.832,40.435,84.826
				c-1.571,43.802-20.476,80.309-42.987,82.832c0,0-0.011-0.007-0.016-0.007c-32.585-3.958-71.437-33.332-70.184-69.566v-28.154
				C962.433,468.917,999.614,435.795,1035.186,436.683z"/>
			<path style="fill:#13375B;" d="M1117.408,1112.306h205.54v-55.901c0-15.149-12.281-27.432-27.432-27.432H1144.84
				c-15.15,0-27.432,12.282-27.432,27.432V1112.306z"/>
			<path style="fill:#13375B;" d="M1257.778,1127.63c0,34.007,24.688,61.575,55.145,61.575c30.455,0,55.145-27.568,55.145-61.575
				c0-34.006-24.689-61.574-55.145-61.574C1282.467,1066.056,1257.778,1093.624,1257.778,1127.63z"/>
			<path style="fill:#13375B;" d="M1039.704,1415.912c0,34.008,24.689,61.576,55.145,61.576c30.456,0,55.146-27.568,55.146-61.576
				c0-34.005-24.689-61.575-55.146-61.575C1064.394,1354.337,1039.704,1381.907,1039.704,1415.912z"/>
			<path style="fill:#13375B;" d="M1042.211,1726.588c0,34.006,24.689,61.575,55.146,61.575c30.455,0,55.145-27.569,55.145-61.575
				c0-34.008-24.689-61.575-55.145-61.575C1066.9,1665.013,1042.211,1692.58,1042.211,1726.588z"/>
			<path style="fill:#13375B;" d="M1073.125,1127.63c0,34.007,24.689,61.575,55.146,61.575s55.146-27.568,55.146-61.575
				c0-34.006-24.689-61.574-55.146-61.574S1073.125,1093.624,1073.125,1127.63z"/>
			<path style="fill:#355389;" d="M1055.84,760.866c113.354-20.979,229.614-20.364,342.631,1.791
				c14.99,2.938,23.613,18.752,17.874,32.872c-26.763,65.842-50.754,132.674-71.93,200.321
				c-3.519,11.244-14.549,18.303-26.274,16.907c-1.078-0.127-2.155-0.253-3.234-0.376c-20.665-2.355-38.747,13.882-38.747,34.626
				l-7.076,117.852l-95.838-1.746l-7.376-110.141c0-21.647-19.62-38.185-40.974-34.303c-0.212,0.039-0.423,0.077-0.634,0.116
				c-12.486,2.283-24.568-5.539-27.801-17.781c-18.483-69.993-38.321-139.733-59.514-209.184
				C1032.71,777.93,1041.528,763.515,1055.84,760.866z"/>
			<path style="fill:#466EB6;" d="M1096.461,1001.003c-18.483-69.993-38.321-139.733-59.514-209.184
				c-4.237-13.889,4.581-28.304,18.893-30.953c113.354-20.979,229.614-20.364,342.631,1.791
				c14.99,2.938,23.613,18.752,17.874,32.872c-26.763,65.842-50.754,132.674-71.929,200.321
				c-3.52,11.244-14.55,18.303-26.275,16.907c-1.078-0.127-2.155-0.253-3.234-0.376c-0.669-0.077-1.336-0.133-2-0.171l-6.767-1.467
				l-171.193,7.569c-3.257-0.362-6.632-0.265-10.051,0.357c-0.212,0.039-0.423,0.077-0.634,0.116l-4.231,0.395
				C1109.142,1019.231,1099.326,1011.853,1096.461,1001.003z"/>
			<path style="fill:#466EB6;" d="M1059.066,1397.432c31.877,1.596,63.8,1.05,95.6-1.633c14.621-1.235,25.541-15.526,24.161-31.827
				c-5.311-62.728-10.621-125.453-15.932-188.18c-1.299-15.35-13.078-26.842-26.879-26.366c-19.266,0.661-38.542,0.239-57.756-1.268
				c-14.188-1.111-26.612,10.495-27.951,26.307c-5.394,63.695-10.785,127.391-16.178,191.088
				C1032.724,1382.191,1044.113,1396.683,1059.066,1397.432z"/>
			<path style="fill:#466EB6;" d="M980.381,1702.796l41.966-217.705c3.478-18.042,17.764-30.926,34.292-30.926h58.345
				c16.527,0,30.814,12.884,34.292,30.926l41.965,217.705h-0.044v74.812c0,15.409-10.214,28.153-23.495,30.253
				c-2.013,0.318-4.097,0.39-6.227,0.191c-14.248-1.329-25.006-15.076-25.006-31.039v-37.802c0-20.109-14.601-36.415-32.612-36.415
				h-80.667c-12.092,0-21.893,10.947-21.893,24.447v80.92l0,0c-11.537,0-20.888-9.353-20.888-20.889v-84.479H980.381z"/>
			<path style="fill:#355389;" d="M1056.832,1719.591c0,0,61.412-1.399,85.225,15.394c12.122,8.549,16.773,29.429,18.42,47.868
				c1.73,19.387-6.674,38.158-21.523,48.39l-23.932,16.486c-8.552,5.894-18.379,9.072-28.428,9.196l-57.488,0.709
				c-23.67,0.291-43.437-20.212-44.775-46.6c-1.294-25.53-0.875-54.256,6.077-66.254
				C1004.194,1720.99,1056.832,1719.591,1056.832,1719.591z"/>
			<path style="fill:#13375B;" d="M1274.554,1416.615c0.503,34.004,25.596,61.204,56.049,60.754
				c30.452-0.451,54.73-28.38,54.229-62.382c-0.502-34.004-25.596-61.204-56.048-60.756
				C1298.332,1354.682,1274.052,1382.611,1274.554,1416.615z"/>
			<path style="fill:#13375B;" d="M1295.521,1726.227c0.502,34.004,25.596,61.204,56.048,60.755
				c30.453-0.45,54.731-28.381,54.229-62.383s-25.596-61.204-56.048-60.754S1295.02,1692.225,1295.521,1726.227z"/>
			<path style="fill:#466EB6;" d="M1282.742,1397.432c31.876,1.596,63.799,1.05,95.6-1.633c14.621-1.235,25.541-15.526,24.16-31.827
				c-5.31-62.728-10.62-125.453-15.931-188.18c-1.299-15.35-13.078-26.842-26.879-26.366c-19.266,0.661-38.542,0.239-57.756-1.268
				c-14.189-1.111-26.614,10.495-27.952,26.307c-5.393,63.695-10.784,127.391-16.177,191.088
				C1256.398,1382.191,1267.789,1396.683,1282.742,1397.432z"/>
			<path style="fill:#466EB6;" d="M1233.348,1703.353l38.745-218.302c3.211-18.093,17.306-31.185,33.833-31.43l58.337-0.862
				c16.526-0.243,31.001,12.429,34.745,30.417l45.176,217.063h-0.045l1.105,74.804c0.228,15.406-9.797,28.298-23.045,30.595
				c-2.009,0.348-4.091,0.45-6.224,0.284c-14.266-1.119-25.226-14.703-25.462-30.668l-0.558-37.795
				c-0.298-20.109-15.138-36.196-33.146-35.93l-80.659,1.191c-12.09,0.18-21.729,11.268-21.529,24.766l1.194,80.912l0,0
				c-11.534,0.169-21.024-9.044-21.193-20.578l-1.249-84.468H1233.348z"/>
			<path style="fill:#355389;" d="M1310.038,1719.015c0,0,61.384-2.306,85.442,14.133c12.247,8.37,17.207,29.18,19.124,47.592
				c2.018,19.359-6.108,38.253-20.806,48.702l-23.685,16.84c-8.465,6.018-18.245,9.34-28.29,9.614l-57.472,1.557
				c-23.662,0.642-43.731-19.567-45.458-45.933c-1.671-25.509-1.676-54.237,5.099-66.338
				C1257.427,1721.191,1310.038,1719.015,1310.038,1719.015z"/>
			<path style="fill:#13375B;" d="M1225.975,792.937h0.104c21.429,0,38.8-17.372,38.8-38.8v-73.072h-77.704v73.072
				C1187.175,775.565,1204.546,792.937,1225.975,792.937z"/>
			<ellipse style="fill:#466EB6;" cx="1229.787" cy="509.818" rx="210.554" ry="202.496"/>
			<path style="fill:#13375B;" d="M1090.255,573.212c72.696-15.022,147.07-14.743,219.653,0.817
				c14.72,3.156,28.943-7.82,32.207-24.996c2.738-14.406,5.475-28.813,8.213-43.218c3.438-18.091-6.567-36.035-22.081-39.293
				c-84.693-17.791-171.408-17.485-255.979,0.902c-15.434,3.356-25.345,21.241-21.921,39.26c2.629,13.832,5.256,27.663,7.884,41.494
				C1061.479,565.271,1075.59,576.243,1090.255,573.212z"/>
			<ellipse style="fill:#9BC1F9;" cx="1113.503" cy="510.244" rx="24.439" ry="23.333"/>
			<path style="fill:#B75742;" d="M1436.683,460.869c-3.151,0-28.751,3.393-31.903,3.393
				c-0.015-126.979-75.368-197.01-162.103-204.665c-0.003-3.466,0.224-6.933,0.894-10.4
				C1334.745,257.29,1436.698,327.403,1436.683,460.869z"/>
			<path style="fill:#F47458;" d="M1419.094,434.554c-23.988,0.598-42.084,38.833-40.435,84.827
				c1.57,43.801,20.474,80.309,42.987,82.831c0,0,0.011-0.006,0.014-0.007c32.587-3.958,71.438-33.333,70.186-69.566v-28.155
				C1491.846,466.789,1454.665,433.667,1419.094,434.554z"/>
			<g>
				<path style="fill:#9BC1F9;" d="M1291.186,525.467c1.972,0,3.948-0.718,5.499-2.169c3.24-3.034,3.431-8.105,0.409-11.358
					c-10.738-11.564-38.361-28.143-66.049-8.095c-3.605,2.61-4.412,7.65-1.801,11.255c2.61,3.604,7.65,4.413,11.256,1.801
					c22.971-16.633,43.921,5.101,44.803,6.033C1286.891,524.616,1289.035,525.467,1291.186,525.467z"/>
			</g>
		</g>
		<g>
			<path style="fill:#FFA283;" d="M565.896,810.056c0,0-100.366-51.294-113.948-76.759c-13.582-25.469-65.25-121.2-65.25-121.2
				s-9.324-98.395-28.851-98.395c-19.521,0-39.588,58.624-26.006,92.582c13.582,33.955,51.395,165.722,88.744,194.584
				c37.355,28.862,135.718,88.356,135.718,88.356L565.896,810.056z"/>
			<g>
				<path style="fill:#FFA283;" d="M574.739,1433.179c0,0-3.397,69.608-3.397,112.053c0,42.445,65.368,208.827,59.423,232.595
					c-5.944,23.77,61.601,20.54,61.601,20.54s4.611-129.197-12.79-190.319c-17.401-61.116,0-186.752,0-186.752L574.739,1433.179z"/>
				<path style="fill:#FFA283;" d="M738.708,1399.625c0,0,21.935,115.046,39.763,141.361
					c17.828,26.314,113.752,205.433,113.752,228.353c0,22.919,60.273,4.244,60.273,4.244s-50.932-196.094-71.308-255.516
					c-20.375-59.423-28.013-108.659-28.013-108.659L738.708,1399.625z"/>
			</g>
			<path style="fill:#F47458;" d="M573.89,1285.471c-6.238,37.859-31.616,267.811-31.616,267.811s86.552,26.58,138.332,14.696
				c0,0-1.456-184.884,10.433-184.884c0.118,0,0.236,0,0.354,0.002c16.979,0.093,31.905,11.945,36.002,28.423
				c9.913,39.854,37.123,160.023,37.123,160.023s109.398-15.244,133.166-26.279c0,0-36.542-260.118-76.438-300.018l-47.864-42.965
				l-174.462-22.488C598.918,1179.792,578.306,1258.683,573.89,1285.471z"/>
			<path style="fill:#F47458;" d="M528.048,1850.832H713.53c0,0,3.824-67.062-8.909-79.795c-12.738-12.735-9.341,1.611-30.562,9.718
				c-21.225,8.105-35.033-11.446-44.729-21.143c-9.702-9.699-2.81,30.947-43.557,30.947
				C545.027,1790.56,518.712,1832.154,528.048,1850.832z"/>
			<path style="fill:#F47458;" d="M892.398,1758.117c-9.45,2.745-38.199,29.048-46.685,56.212
				c-8.487,27.164-5.095,36.503-5.095,36.503s31.41,11.884,89.984,4.243c58.574-7.641,49.233-13.582,49.233-13.582
				s-7.638-60.271-18.672-78.099C950.123,1745.569,908.955,1753.305,892.398,1758.117z"/>
			<path style="fill:#FFA283;" d="M933.685,1014.956c60.504,97.664,95.579,164.836,61.759,207.289
				c-36.95,46.384-115.142,37.293-151.355,76.713c-34.008-12.54-40.885-46.089-40.885-46.089s13.847-4.501,35.055-11.395
				c69.705-30.26,99.085-48.176,89.434-81.189c-9.651-33.015-43.708-77.096-43.708-77.096
				C899.701,1011.936,933.685,1014.956,933.685,1014.956z"/>
			<path style="fill:#FFFFFF;" d="M969.916,1032.423c0,0-46.37,68.482-82.609,69.73c-23.784-35.821-34.394-56.398-34.627-52.473
				c-0.263,4.438-0.215,121.422-6.39,185.299c-47.825,27.688-264.412,8.161-272.904-19.853
				c-8.487-28.013,33.109-260.61,22.924-270.797c-10.19-10.185-107.902-60.65-107.902-60.65s40.274-79.221,65.058-103.782
				c0,0,48.379,25.301,94.591,43.889c60.63,24.387,111.674,31.135,145.407,46.796C912.315,925.76,921.238,952.294,969.916,1032.423z
				"/>
			<path style="fill:#FFA283;" d="M692.017,794.925v84.04c0,0,30.777,33.106,70.674,10.186l18.379-108.153L692.017,794.925z"/>
			<path style="opacity:0.68;fill:#FF7F4C;" d="M692.017,837.277c25.425,6.413,56.85-4.4,83.876-25.826l5.177-30.453l-89.053,13.927
				V837.277z"/>
			<path style="fill:#FFA283;" d="M694.36,649.16c0,0-86.717,104.064-47.214,155.134c39.509,51.066,129.117,16.38,173.439-48.178
				C864.909,691.557,710.741,600.982,694.36,649.16z"/>
			<path style="fill:#011037;" d="M779.156,686.74c0,0,31.797,0.964,19.266,30.833c-12.525,29.87-35.168,39.988-23.122,52.031
				c8.284,8.281,3.558,25.217-0.205,34.99c-1.945,5.053-2.243,10.591-0.66,15.77l0.211,0.689
				c3.511,11.512,14.569,19.001,26.557,17.967c29.175-2.518,77.983-17.21,75.267-87.722c0,0,24.308-45.289,0.111-79.975
				c-24.197-34.689-42.505-31.797-42.505-31.797s-8.67-32.761-35.653-40.47c-26.978-7.708-105.989-35.653-114.658,7.708
				C675.088,650.124,713.633,681.921,779.156,686.74z"/>
			<path style="fill:#FFA283;" d="M770.603,741.181c2.249-1.154,34.298-16.019,39.024,2.167c4.381,16.877-1.7,43-24.7,43
				C761.934,786.348,741.697,755.996,770.603,741.181z"/>
			<path style="fill:#FFFFFF;" d="M713.53,1850.832c0,0,0.798-13.927,0.453-30.291c-21.75,9.403-141.091,7.893-184.457,7.013
				c-3.777,8.703-4.514,17.202-1.477,23.278H713.53z"/>
			<path style="fill:#FFFFFF;" d="M930.602,1855.075c58.574-7.641,49.233-13.582,49.233-13.582s-1.76-13.883-4.807-30.296
				l-0.01,0.005c-38.873,38.873-103.871,23.848-132.465,14.555c-4.354,18.418-1.935,25.075-1.935,25.075
				S872.027,1862.716,930.602,1855.075z"/>
		</g>
		<g>
			<path style="fill:#13375B;" d="M361.682,646.545h62.243c4.821,0,9.654-3.908,10.794-8.729l27.57-116.516
				c1.141-4.821-1.843-8.729-6.663-8.729h-62.243c-4.821,0-9.654,3.908-10.795,8.729l-27.57,116.516
				C353.877,642.637,356.861,646.545,361.682,646.545z"/>
			<path style="fill:#466EB6;" d="M393.383,512.571h11.766c-4.821,0-9.654,3.908-10.794,8.729l-27.571,116.516
				c-1.141,4.82,1.843,8.729,6.664,8.729h-11.766c-4.821,0-7.804-3.909-6.664-8.729l27.57-116.516
				C383.729,516.479,388.562,512.571,393.383,512.571z"/>
		</g>
		<path style="fill:#FFA283;" d="M378.453,538.777c16.369,1.37,21.455,39.955,18.873,49.595
			c-2.582,9.641-38.763,40.647-40.512,27.965C355.064,603.656,371.894,544.12,378.453,538.777z"/>
	</g>
</g>
</svg>
